<svg xmlns="http://www.w3.org/2000/svg" id="uuid-dbfb6c64-b5ab-466d-9a19-d5c0ca4bb59e" viewBox="0 0 380 80"><path d="M356.83,48.31c-.43,2.83-.85,5.65-1.28,8.48-.1,.67-.25,1.33-.38,2.03h-25.59c.33-.51,.47-.9,.74-1.09,.34-.23,.78-.31,1.19-.44,3.04-1,3.02-1,3.04-4.14,.07-8.45,.18-16.9,.21-25.35,.01-3.61-.2-7.22-.22-10.84,0-.98-.31-1.48-1.26-1.67-.62-.12-1.27-.27-1.82-.56-.43-.23-.75-.68-1.11-1.04,.44-.17,.87-.48,1.31-.48,5.05-.03,10.1,.05,15.15-.05,2.37-.05,4.75-.36,7.11-.72,1.1-.17,1.48,.1,1.48,1.16-.01,2.65,0,5.3,0,7.95-1.12,.62-1.82,.41-2.35-.69-.78-1.63-1.6-3.24-2.49-4.81-.24-.43-.8-.93-1.23-.95-2.65-.09-5.29-.04-8.19-.04v14.01h10.36c1.15,2.88,1.26,5,.32,5.79-3.03-2.77-6.7-3.87-10.8-4.08v26.14c3.23,0,6.23,.03,9.23-.05,.31,0,.7-.69,.9-1.14,1.11-2.47,2.24-4.93,3.24-7.45,.5-1.25,1.14-1.81,2.46-1.27v1.28Z" style="fill:#fff;"></path><path d="M145.14,13.26c.42-.02,.84-.06,1.26-.06,4.67,0,9.35,0,14.34,.37-.32,.35-.61,.98-.97,1.02-2.89,.34-3.73,1.91-3.5,4.72,.26,3.27,.06,6.57,.06,9.99h12.84c0-2.62,.02-5.25,0-7.88-.02-1.43-.25-2.87-.16-4.29,.08-1.26-.49-1.7-1.57-1.92-.78-.16-1.56-.37-2.28-.69-.36-.16-.6-.6-1.18-1.22h15.9c.1,.11,.19,.22,.29,.33-.4,.36-.74,.87-1.21,1.05-3.35,1.27-3.33,1.25-3.37,4.92-.08,7.17-.24,14.35-.26,21.52-.01,4.36,.25,8.71,.24,13.07,0,1.69,.49,2.52,2.21,2.95,1.35,.34,2.49,.42,3.81-.09,1.05-.4,1.47-.97,1.7-2,2.85-12.96,5.75-25.9,8.57-38.87,.32-1.49,.91-2.64,2.14-3.55,.93-.69,1.75-1.53,2.9-2.56,.29,1.01,.55,1.77,.72,2.55,3.06,14.23,6.87,28.24,11.41,42.07,.42,1.29,1.14,1.85,2.29,2.3,.76,.3,2.01,.29,1.89,1.76h-16.09c.24-.45,.38-.79,.6-1.06,.11-.14,.39-.14,.59-.22,1.16-.48,2.82-.66,3.32-1.52,.45-.78-.36-2.29-.62-3.48-.49-2.23-1.03-4.45-1.47-6.68-.18-.93-.52-1.35-1.56-1.32-2.71,.07-5.42,.05-8.13,0-.8-.01-1.28,.17-1.46,1.03-.74,3.52-1.53,7.04-2.31,10.62,1.69,.97,3.87,.82,5.28,2.15-.06,.17-.13,.33-.19,.5h-26.84c.24-.45,.35-.92,.63-1.09,.49-.29,1.08-.51,1.65-.56,2.02-.15,2.52-1.33,2.53-3.16,.03-7.07,.15-14.13,.23-21.19,0-.31-.06-.62-.1-1.01h-13.37c0,2.02-.04,4.07,0,6.11,.14,5.63,.36,11.26,.45,16.89,.02,1.26,.31,2,1.65,2.19,.67,.09,1.34,.36,1.95,.66,.33,.16,.56,.56,1.12,1.16h-16.19c.22-.43,.31-.79,.53-.99,.22-.2,.58-.24,.88-.34,3.43-1.2,3.44-1.2,3.47-4.81,.07-8.39,.15-16.79,.17-25.18,0-3.45-.16-6.91-.17-10.36,0-1.02-.3-1.58-1.34-1.78-.88-.17-1.75-.45-2.58-.79-.38-.15-.64-.58-.96-.88,.1-.13,.2-.25,.3-.38Zm53.51,28.97c-1.68-6.5-3.33-12.88-4.98-19.26-.1,0-.19-.01-.29-.02-1.41,6.38-2.83,12.76-4.27,19.28h9.54Z" style="fill:#fff;"></path><path d="M29.71,58.28c-2.48-4.15-3.84-8.71-4.89-13.37-2.07-9.19-2.19-18.34,1.05-27.32,2.24-6.23,5.62-11.6,11.98-14.4,5.25-2.31,10.64-1.77,15.92-.23,2.65,.77,5.12,2.18,7.94,3.42-1.4,1.8-2.48,3.2-3.65,4.7-1.48-1.75-2.34-3.96-4.63-4.86,2.82,3.55,4.06,7.51,4.05,12.03h-2.47c-.59-2.22-.92-4.51-1.81-6.55-1.88-4.34-5.1-7.21-10.06-7.4-5.22-.21-8.72,2.6-11.1,6.96-2.87,5.27-3.59,11.08-3.79,16.95-.22,6.86,0,13.73,1.49,20.46,.66,2.97,1.65,5.97,3.05,8.66,2.52,4.85,6.83,6.84,11.27,5.76,4.42-1.08,7.54-5.27,7.67-10.55,.07-3.08,.02-6.17-.22-9.24-.16-1.97,.04-3.66,1.55-5.05,.34-.31,.58-.74,.88-1.12-3.63-1.51-9.08-.38-10.45,3.29-.34,.9-.42,1.57,.53,2.15,.63,.38,1.16,.93,1.73,1.4,1.06,.88,1.07,1.68,.04,2.59-1.45,1.27-3.66,.94-4.89-.74-1.49-2.04-1.22-5.36,.77-8.04,2.15-2.9,5-4.54,8.69-4.54,1.16,0,2.31,0,3.42,0,.9-2.42-.13-3.84-2.22-4.6,.63-1.96,2.1-3.06,4.07-3.21,1.77-.13,3.25,.86,4.43,3.04-1.83,1-3.34,2.25-2.22,4.99h9.09v2.14c-3.08,.39-6.15,.79-9.29,1.19,.11,.34,.11,.54,.21,.63,2.56,2.23,2.19,5.18,2.09,8.1-.21,6.32-.46,12.64-.5,18.96-.02,2.51-.35,4.83-1.53,7.05-.72,1.34-1.24,2.79-1.98,4.49-2.73-4.79-3.92-9.64-3.49-15.24-.58,.48-.79,.61-.95,.79-4.98,5.84-12.11,6.62-18.86,3.56-5.95-2.7-9.66-7.58-11.91-13.52-1.16-3.05-1.91-6.29-2.5-9.51-.61-3.3-2.04-5.86-4.95-7.59-.53-.31-.86-.95-1.28-1.43,.1-.13,.19-.26,.29-.39h5.26c.59-3.43,.98-6.75,1.75-9.98,1.43-6.02,4.22-11.32,8.97-15.46,.2-.17,.37-.42,.6-.51,.3-.12,.65-.13,.97-.19-.05,.36-.01,.76-.18,1.06-1.41,2.55-3.1,4.97-4.24,7.63-2.52,5.89-3.47,12.12-3.37,18.52,0,.52,0,1.04,0,1.66-.97,.07-1.82,.13-2.67,.2-.08,.11-.17,.21-.25,.32,3.24,1.64,3.25,4.76,3.9,7.62,1.08,4.72,2.52,9.33,5.08,13.5,.34,.56,.81,1.03,1.21,1.55,.13-.1,.26-.19,.39-.29Zm26.21,9.58c.91-9.17,.91-18.34,0-27.51-.91,9.17-.9,18.33,0,27.51Z" style="fill:#fff;"></path><path d="M87.52,31.06c2.89,12.09,7.83,23.34,13.45,34.42-.25,.22-.46,.44-.71,.61-.25,.17-.54,.3-1.07,.59-2.16-3.33-4.38-6.56-6.42-9.91-4.43-7.27-8.19-14.89-11.1-22.9-.47-1.3-1.15-1.72-2.44-1.52-.77,.12-1.57,.09-2.55,.13,0,2.02-.03,3.97,0,5.91,.09,5.53,.25,11.05,.29,16.58,0,1.18,.34,1.73,1.51,1.92,1.14,.19,2.27,.55,3.38,.91,.27,.09,.45,.47,.67,.71-.29,.17-.57,.48-.86,.48-5.05,.03-10.1,.02-15.15,0-.25,0-.51-.26-.76-.4,.18-.27,.3-.7,.55-.8,.93-.37,1.9-.69,2.87-.93,.85-.21,1.21-.59,1.22-1.52,.05-4.68,.26-9.35,.26-14.03,0-7.7-.11-15.41-.19-23.11-.02-2.44-.06-2.4-2.37-3.11-.83-.26-1.58-.79-2.37-1.2,.88-.21,1.77-.59,2.65-.59,5.79,.03,11.59-.07,17.37,.3,5.64,.36,8.85,4.05,8.74,9.38-.06,2.94-1.59,4.99-3.99,6.48-.94,.58-1.95,1.04-3.01,1.6Zm-10.5-.6c2.89,.05,5.79-.36,8.37-2.08,2.4-1.6,3.07-3.95,2.77-6.68-.28-2.54-1.28-4.82-3.83-5.57-2.08-.62-4.37-.55-6.57-.7-.23-.01-.71,.61-.71,.94-.05,4.61-.03,9.23-.03,14.09Z" style="fill:#fff;"></path><path d="M293.36,31.01c2.87,12.15,7.87,23.42,13.49,34.55-.54,.36-1,.68-1.7,1.15-1.84-2.74-3.71-5.37-5.41-8.1-4.84-7.77-8.99-15.9-12.11-24.51-.53-1.47-1.28-2.01-2.76-1.75-.72,.12-1.46,.1-2.25,.14,0,2.42-.02,4.74,0,7.06,.06,4.99,.2,9.99,.18,14.98,0,1.57,.5,2.3,2.08,2.46,.99,.1,1.97,.43,2.92,.76,.31,.11,.53,.51,.79,.78-.29,.16-.58,.46-.87,.46-5.1,.03-10.21,.03-15.31,0-.27,0-.54-.34-.81-.52,.22-.25,.4-.63,.67-.74,.94-.36,1.9-.67,2.88-.9,.87-.21,1.18-.64,1.18-1.55-.01-12.17,.03-24.33,0-36.5,0-3.01-.11-3.01-2.99-3.83-.31-.09-.67-.1-.91-.28-.33-.25-.56-.62-.84-.93,.35-.16,.69-.45,1.04-.45,6.32,.06,12.65-.06,18.96,.3,5.73,.32,8.93,4.1,8.74,9.67-.12,3.31-2.19,5.27-4.88,6.75-.64,.35-1.33,.64-2.09,1Zm-10.52-.56c2.91,.08,5.79-.34,8.36-2.05,2.5-1.66,3.18-4.1,2.79-6.95-.38-2.75-1.7-4.93-4.44-5.62-1.91-.48-3.98-.35-5.99-.41-.23,0-.69,.52-.69,.8-.04,4.66-.03,9.31-.03,14.22Z" style="fill:#fff;"></path><path d="M232.31,5.88h18.69c.3,.86,.17,1.36-.8,1.65-1.93,.58-3.85,1.23-5.72,1.96-.5,.2-1.09,.75-1.21,1.24-1.81,7.75-3.56,15.52-5.31,23.28-.04,.2-.02,.4-.04,.81h4.03c-.36,.63-.46,1.12-.72,1.23-2.85,1.13-3.97,3.64-4.74,6.25-1.38,4.68-2.56,9.42-3.78,14.14-.52,2-1.05,4.01-1.36,6.06-.26,1.73-1.18,2.61-2.98,3.02-5.4-19.82-10.8-39.65-16.24-59.61h12.3c-.53,.71-.76,1.32-1.2,1.57-1.19,.69-2.45,1.28-3.73,1.79-.95,.38-1.26,.82-.97,1.91,3.26,12.31,6.46,24.64,9.69,36.96,.5,1.89,1.11,3.75,2,5.67,.28-1.33,.6-2.66,.84-3.99,2.03-11.29,4.05-22.57,6.07-33.86,.31-1.72,.6-3.45,.97-5.17,.19-.9-.11-1.37-.96-1.68-1.4-.5-2.8-1.03-4.14-1.65-.45-.21-.73-.76-1.09-1.15,.13-.14,.25-.28,.38-.42Z" style="fill:#fff;"></path><path d="M268.45,21.63c-1.38,.63-2,.14-2.49-.98-.68-1.55-1.46-3.07-2.34-4.52-.29-.48-.98-.98-1.51-1.01-2.23-.11-4.47-.1-6.7,0-.43,.02-1.2,.62-1.21,.96-.08,4.29-.05,8.58-.05,13.13,3.02,0,6.08,.05,9.15-.03,1.14-.03,1.64,.29,1.73,1.45,.07,.94,.41,1.87,.52,2.81,.05,.4-.2,.83-.32,1.25-.36-.12-.79-.16-1.06-.38-2.59-2.17-5.66-3.04-8.93-3.46-1.02-.13-1.47,.17-1.45,1.26,.14,7.92,.25,15.84,.36,23.76,.01,.81,.32,1.13,1.14,1.12,2.5-.03,5,.04,7.5-.06,.46-.02,1.09-.57,1.3-1.04,1.22-2.59,2.4-5.21,3.46-7.87,.47-1.17,1.05-1.49,2.35-.78-.51,3.76-1.03,7.62-1.57,11.57h-25.51c.2-.44,.29-.8,.51-1.05,.15-.17,.48-.19,.73-.28,3.41-1.23,3.56-1.23,3.58-4.78,.05-11.9-.03-23.81-.02-35.71,0-1.32-.87-1.64-1.8-2.09-.46-.22-.78-.7-1.17-1.07,.52-.21,1.04-.59,1.57-.59,4.04-.05,8.09,.06,12.12-.06,2.91-.09,5.81-.39,8.7-.74,.99-.12,1.42,.05,1.42,1.06,0,2.71,0,5.42,0,8.14Z" style="fill:#fff;"></path><path d="M139.57,12.41v10.56c-.88,.37-1.43,.18-1.75-.84-.38-1.21-.91-2.38-1.35-3.57-.86-2.33-2.32-3.38-4.88-3.53-2.59-.15-4.59,.8-5.78,3.13-1.37,2.69-.85,5.26,1.12,7.36,1.88,2,4.04,3.76,6.14,5.54,2.98,2.51,5.8,5.14,7.71,8.61,3.39,6.2,2.04,13.96-3.23,17.64-3.94,2.76-8.34,2.41-12.73,1.37-1.06-.25-1.97-.62-2.97,.15-.65,.5-1.08,.19-1.16-.61-.4-4.07-.83-8.13-1.15-12.21-.03-.43,.55-.91,.85-1.36,.16,.06,.31,.12,.47,.19,.87,2.38,1.99,4.71,2.55,7.16,.75,3.31,5.18,5.56,9.01,4.58,3.18-.81,5.01-4,4.47-7.79-.63-4.39-3.28-7.49-6.43-10.31-2.61-2.33-5.43-4.5-7.68-7.14-4.61-5.4-3.56-13.12,2.08-16.7,3.16-2,6.68-2.43,10.26-1.42,1.33,.38,2.39,.56,3.44-.44,.17-.16,.47-.2,1.02-.41Z" style="fill:#fff;"></path><path d="M307.06,44.92c.93,2.54,1.88,5.07,2.77,7.62,.99,2.84,4.3,4.66,7.74,4.21,3.31-.43,5.2-2.48,5.46-5.81,.36-4.61-1.87-8.09-4.98-11.08-2.33-2.24-4.95-4.18-7.31-6.4-3.2-3.01-5.13-6.63-4.54-11.21,.76-5.84,5.75-9.7,12.21-9.45,.48,.02,.96,.01,1.43,.11,1.93,.39,3.89,1.56,5.86-.87v10.98c-.9,.35-1.43,.06-1.73-.92-.34-1.11-.83-2.18-1.23-3.28-1.17-3.21-4.51-4.71-7.7-3.43-3.18,1.27-4.85,5.03-3.21,8.02,.99,1.81,2.52,3.38,4.02,4.84,2.85,2.77,6.1,5.16,8.75,8.1,3.87,4.29,5.24,9.43,3.42,15.09-1.43,4.44-4.55,7.26-9.2,7.7-2.74,.26-5.55-.39-8.34-.57-.73-.05-1.55-.06-2.2,.21-.93,.38-1.42,.33-1.51-.74-.35-3.97-.72-7.93-1-11.91-.03-.46,.46-.96,.71-1.45,.19,.08,.38,.17,.57,.25Z" style="fill:#fff;"></path><path d="M223.58,70.37c-1.67-6.54-3.21-12.93-4.94-19.27-.96-3.52-2.1-7-3.39-10.41-.8-2.12-2.31-3.8-4.58-4.61-.29-.1-.48-.52-1.03-1.16h4.61c-1.31-4.16-2.51-8.04-3.75-11.92-1.5-4.7-3-9.4-4.59-14.07-.23-.69-.89-1.36-1.53-1.75-.99-.6-2.17-.87-3.19-1.43-.51-.28-.84-.89-1.25-1.35l.32-.46c3.02,0,6.04-.05,9.05,.06,.36,.01,.86,.81,1,1.33,1.46,5.15,2.86,10.33,4.29,15.49,1.46,5.26,2.93,10.53,4.43,15.9-.58,.17-1.09,.33-1.86,.55,3.5,2.47,3.66,6.34,4.67,9.78,1.9,6.46,3.58,12.99,5.46,19.46,.47,1.62,.14,2.46-1.45,2.92-.7,.2-1.36,.57-2.25,.95Z" style="fill:#fff;"></path><path d="M115.32,13.66c-.39,.32-.73,.76-1.18,.95-1.06,.46-2.69,.51-3.13,1.28-.59,1.01-.34,2.56-.34,3.87,0,11.68,.06,23.37,.02,35.05,0,1.36,.45,1.91,1.68,2.13,.67,.12,1.34,.36,1.95,.66,.38,.19,.64,.59,1.26,1.2h-16.37c.26-.46,.39-.8,.61-1.06,.12-.14,.39-.14,.59-.21,1.21-.48,2.85-.64,3.49-1.52,.62-.85,.23-2.46,.23-3.73,0-11.68-.04-23.36,0-35.05,0-1.28-.48-1.8-1.63-2.03-.78-.15-1.55-.38-2.28-.68-.38-.16-.67-.55-1-.84,.06-.12,.13-.24,.19-.35h15.65c.09,.11,.18,.22,.26,.33Z" style="fill:#fff;"></path></svg>